<svg version="1.1" id="Layer_1" xmlns="http://www.w3.org/2000/svg" xmlns:xlink="http://www.w3.org/1999/xlink" x="0px" y="0px"
	 width="16px" height="16px" viewBox="0 0 512 512" enable-background="new 0 0 512 512" xml:space="preserve">
<path fill="transparent" opacity="1.000000" stroke="none" 
	d="
M39.000000,513.000000 
	C26.340551,513.000000 13.681104,513.000000 1.016242,513.000000 
	C1.010828,342.437805 1.010828,171.875626 1.010828,1.000000 
	C73.353928,1.000000 145.708298,1.000000 218.440231,1.345757 
	C212.062241,4.505859 208.923233,9.389627 208.935501,16.886091 
	C209.045853,84.363945 209.000000,151.842056 209.000000,219.320084 
	C209.000000,221.101486 209.000000,222.882904 209.000000,225.000000 
	C187.264954,225.000000 165.974930,225.186035 144.691559,224.891846 
	C137.900345,224.797958 133.079315,227.613205 130.480972,233.237396 
	C127.993958,238.620560 127.344017,244.904037 131.492264,249.895279 
	C143.200333,263.982635 155.201630,277.828522 167.208130,291.664795 
	C175.172867,300.843384 183.403442,309.790833 191.410461,318.933289 
	C202.419647,331.503632 213.351791,344.141693 224.273819,356.787933 
	C230.045364,363.470612 236.020569,370.006622 241.377121,377.011566 
	C249.192215,387.231628 263.404388,388.069519 270.611450,378.942719 
	C274.256927,374.326233 278.185059,369.930573 282.040131,365.482513 
	C290.947662,355.204865 299.862488,344.933289 308.821991,334.700989 
	C323.191589,318.289948 337.597717,301.910889 351.992279,285.521729 
	C361.735138,274.428802 371.571625,263.416412 381.194366,252.220337 
	C385.998596,246.630600 386.463409,239.850693 383.644348,233.479019 
	C380.842072,227.145187 375.335266,224.666641 368.089325,224.877228 
	C353.772736,225.293320 339.435547,225.000000 325.106873,225.000000 
	C318.499176,225.000000 311.891479,225.000000 305.000000,225.000000 
	C305.000000,222.704773 305.000000,220.903748 305.000000,219.102722 
	C305.000000,152.957596 304.854553,86.811752 305.172211,20.668150 
	C305.215027,11.753439 303.032562,5.166420 295.000000,1.000000 
	C367.625275,1.000000 440.250519,1.000000 512.937866,1.000000 
	C512.937866,171.666656 512.937866,342.333313 512.937866,513.000000 
	C500.589874,513.000000 488.263580,513.000000 475.559479,512.644165 
	C475.692780,511.886566 476.144531,511.283905 476.723816,511.112762 
	C487.953979,507.794861 497.226654,493.931122 497.135620,482.806732 
	C496.796082,441.319550 497.000000,399.827911 497.000000,358.337952 
	C497.000000,356.589142 497.000000,354.840332 497.000000,353.344788 
	C475.237488,353.344788 454.167542,353.344788 432.710968,353.344788 
	C432.710968,385.423859 432.710968,417.158997 432.710968,448.684631 
	C315.265839,448.684631 198.213867,448.684631 80.769821,448.684631 
	C80.769821,416.635468 80.769821,384.900330 80.769821,353.310547 
	C59.306396,353.310547 38.237175,353.310547 17.000000,353.310547 
	C17.000000,355.437531 17.000000,357.254883 17.000000,359.072235 
	C17.000000,400.062317 17.255306,441.054962 16.837051,482.040802 
	C16.718853,493.623383 25.498198,507.248260 37.012680,511.068512 
	C37.801865,511.330353 38.343334,512.338745 39.000000,513.000000 
z"/>
<path fill="#fff" opacity="1.000000" stroke="none" 
	d="
M294.531342,1.000000 
	C303.032562,5.166420 305.215027,11.753439 305.172211,20.668150 
	C304.854553,86.811752 305.000000,152.957596 305.000000,219.102722 
	C305.000000,220.903748 305.000000,222.704773 305.000000,225.000000 
	C311.891479,225.000000 318.499176,225.000000 325.106873,225.000000 
	C339.435547,225.000000 353.772736,225.293320 368.089325,224.877228 
	C375.335266,224.666641 380.842072,227.145187 383.644348,233.479019 
	C386.463409,239.850693 385.998596,246.630600 381.194366,252.220337 
	C371.571625,263.416412 361.735138,274.428802 351.992279,285.521729 
	C337.597717,301.910889 323.191589,318.289948 308.821991,334.700989 
	C299.862488,344.933289 290.947662,355.204865 282.040131,365.482513 
	C278.185059,369.930573 274.256927,374.326233 270.611450,378.942719 
	C263.404388,388.069519 249.192215,387.231628 241.377121,377.011566 
	C236.020569,370.006622 230.045364,363.470612 224.273819,356.787933 
	C213.351791,344.141693 202.419647,331.503632 191.410461,318.933289 
	C183.403442,309.790833 175.172867,300.843384 167.208130,291.664795 
	C155.201630,277.828522 143.200333,263.982635 131.492264,249.895279 
	C127.344017,244.904037 127.993958,238.620560 130.480972,233.237396 
	C133.079315,227.613205 137.900345,224.797958 144.691559,224.891846 
	C165.974930,225.186035 187.264954,225.000000 209.000000,225.000000 
	C209.000000,222.882904 209.000000,221.101486 209.000000,219.320084 
	C209.000000,151.842056 209.045853,84.363945 208.935501,16.886091 
	C208.923233,9.389627 212.062241,4.505859 218.908890,1.345757 
	C244.020889,1.000000 269.041779,1.000000 294.531342,1.000000 
z"/>
<path fill="#fff" opacity="1.000000" stroke="none" 
	d="
M39.468658,513.000000 
	C38.343334,512.338745 37.801865,511.330353 37.012680,511.068512 
	C25.498198,507.248260 16.718853,493.623383 16.837051,482.040802 
	C17.255306,441.054962 17.000000,400.062317 17.000000,359.072235 
	C17.000000,357.254883 17.000000,355.437531 17.000000,353.310547 
	C38.237175,353.310547 59.306396,353.310547 80.769821,353.310547 
	C80.769821,384.900330 80.769821,416.635468 80.769821,448.684631 
	C198.213867,448.684631 315.265839,448.684631 432.710968,448.684631 
	C432.710968,417.158997 432.710968,385.423859 432.710968,353.344788 
	C454.167542,353.344788 475.237488,353.344788 497.000000,353.344788 
	C497.000000,354.840332 497.000000,356.589142 497.000000,358.337952 
	C497.000000,399.827911 496.796082,441.319550 497.135620,482.806732 
	C497.226654,493.931122 487.953979,507.794861 476.723816,511.112762 
	C476.144531,511.283905 475.692780,511.886566 475.090820,512.644165 
	C329.979095,513.000000 184.958206,513.000000 39.468658,513.000000 
z"/>
</svg>