<svg version="1.0" xmlns="http://www.w3.org/2000/svg"
 width="20px" height="20px" viewBox="0 0 512.000000 512.000000"
 preserveAspectRatio="xMidYMid meet">

<g transform="translate(0.000000,512.000000) scale(0.100000,-0.100000)"
fill="#000000" stroke="none">
<path d="M1010 4945 c-8 -2 -33 -7 -54 -10 l-39 -6 260 -262 c170 -171 269
-278 283 -307 31 -61 31 -148 1 -215 -32 -72 -414 -454 -486 -486 -67 -30
-154 -30 -215 1 -29 14 -136 113 -307 283 l-262 260 -8 -39 c-14 -66 -8 -283
10 -356 88 -362 361 -634 718 -715 49 -11 118 -16 204 -16 111 0 145 4 230 28
55 16 124 30 153 32 101 9 124 -7 362 -242 168 -165 225 -215 260 -228 l45
-17 167 167 168 168 -244 245 c-198 199 -247 254 -261 292 -22 59 -17 121 20
253 37 134 40 314 7 448 -79 319 -305 571 -607 674 -122 41 -322 65 -405 48z"/>
<path d="M4481 4795 c-150 -68 -275 -126 -278 -129 -3 -2 -18 -67 -34 -142
l-28 -138 -921 -921 c-506 -506 -920 -925 -920 -930 0 -13 222 -235 235 -235
6 0 424 414 930 920 l920 920 120 25 c66 14 130 27 141 30 17 4 48 64 148 284
69 153 126 283 126 287 0 13 -143 154 -155 154 -6 0 -133 -56 -284 -125z"/>
<path d="M1910 2500 c-19 -10 -275 -259 -568 -552 l-532 -533 303 -303 302
-302 542 542 c298 299 547 556 552 571 15 40 14 113 -3 145 -22 41 -417 430
-449 442 -43 15 -108 11 -147 -10z"/>
<path d="M2817 2332 l-168 -168 20 -45 c28 -64 1855 -1889 1921 -1918 55 -25
152 -28 204 -6 59 25 113 81 136 141 25 69 25 119 0 186 -18 48 -102 135 -982
1016 l-963 962 -168 -168z"/>
<path d="M585 1190 l-100 -100 303 -303 302 -302 102 103 103 102 -300 300
c-165 165 -302 300 -305 300 -3 0 -50 -45 -105 -100z"/>
<path d="M273 878 c-83 -84 -107 -123 -96 -155 8 -25 513 -533 541 -544 13 -5
33 -5 50 2 29 11 192 167 192 184 0 13 -582 595 -595 595 -6 0 -47 -37 -92
-82z"/>
</g>
</svg>
