<?xml version="1.0" encoding="utf-8"?>
<!-- Generator: Adobe Illustrator 26.0.3, SVG Export Plug-In . SVG Version: 6.00 Build 0)  -->
<svg version="1.1" id="Layer_1" xmlns="http://www.w3.org/2000/svg" xmlns:xlink="http://www.w3.org/1999/xlink" x="0px" y="0px"
	 viewBox="0 0 207.7 50.9" style="enable-background:new 0 0 207.7 50.9;" xml:space="preserve">
<style type="text/css">
	.st0{fill:#DA1F27;}
	.st1{fill:#FFFFFF;}
	.st2{fill:#141414;}
</style>
<g>
	<g>
		<rect x="0" y="0" class="st0" width="50.9" height="50.9"/>
		<g>
			<path class="st1" d="M21.3,17.5c1.3-1.3,3.2-1.9,4.7-1.9c3.6,0,6.3,1.8,6.3,5.6v11.5h-2.6V21c0-2.4-1.8-3.1-3.7-3.1
				c-1.5,0-3.4,0.9-3.4,2.4v12.3h-2.5V20.6c0-1.8-1.9-2.6-3.9-2.6c-1.2,0-2.3,0.3-3,0.8v14h-2.6V17.1c1.6-0.9,3.7-1.5,5.7-1.5
				C18.1,15.6,20,16.2,21.3,17.5z"/>
			<path class="st1" d="M40.6,30.7c-1.6-0.4-2.5-1.7-2.5-3.2v-6.7h3.4v-2.4h-3.4v-4L35.5,17v10.5c0,3.5,2.5,5.5,5.9,5.5
				c0.4,0,0.6,0,1-0.1v-2.2c-0.3,0.1-0.6,0.1-0.9,0.1C41.1,30.8,40.8,30.8,40.6,30.7z"/>
			<polygon class="st1" points="38.1,12.6 35.5,12.6 35.5,10.1 			"/>
			<rect x="10.5" y="36.1" class="st1" width="31.9" height="2.6"/>
		</g>
	</g>
	<g>
		<g>
			<g>
				<path class="st2" d="M63.2,16.5v20.2h-2V14.5h3.3l7.3,19.8l7.3-19.8l3.3,0v22.2h-2V16.5l-7.5,20.2l-2.1,0L63.2,16.5z"/>
				<path class="st2" d="M91.4,37.1c-3.1,0-5.4-1.8-5.4-4.5c0-3.7,3.7-5.1,11.6-5.9v-0.6c0-3.7-2.2-4.6-4.6-4.6
					c-2.8,0-4.5,1.6-4.6,3.7l-2,0c0.4-3.2,3.1-5.4,6.7-5.4c3.8,0,6.4,1.6,6.4,6.5c0,2.3,0,3.8,0,5.1c0,1.9,0.1,3.5,0.2,5.3l-1.9,0
					l-0.1-2.5C96.5,35.9,94.5,37.1,91.4,37.1z M97.6,29.1v-0.8c-6.7,0.7-9.6,1.6-9.6,4.2c0,1.7,1.6,2.8,3.8,2.8
					C94.9,35.4,97.6,33.8,97.6,29.1z"/>
				<path class="st2" d="M110.8,19.9c3.9,0,5.5,2.3,5.5,6.4v10.4h-1.9v-9.8c0-3.1-0.8-5.2-4.1-5.2c-2.8,0-5,2.4-5,5.9v9.1h-1.9V20.2
					h1.9V23C106.1,21.4,107.7,19.9,110.8,19.9z"/>
				<path class="st2" d="M126.8,19.9c4.6,0,7.6,3.9,7.3,9.1l-13.1,0c0.1,4,2.6,6.3,5.9,6.3c2.6,0,4.4-1.3,5-3.6h2
					c-0.8,3.4-3.5,5.3-7.1,5.3c-4.8,0-7.8-3.5-7.8-8.6C119.1,23.2,122.4,19.9,126.8,19.9z M132.1,27.3c0-2.8-2-5.6-5.3-5.6
					c-3.1,0-5.3,2-5.7,5.6H132.1z"/>
				<path class="st2" d="M139.4,28.4l7.5-8.2h2.3l-6.1,6.6l6.6,9.8h-2.2l-5.7-8.5l-2.5,2.8v5.7h-1.9V14.5h1.9V28.4z"/>
				<path class="st2" d="M154.8,16.5v3.7h3.2v1.7h-3.2v10.5c0,2.1,0.1,2.6,2.3,2.6h1v1.7h-1.6c-2.9,0-3.6-0.7-3.6-3.9V21.9h-2.7
					v-1.7l2.7,0v-3.7H154.8z"/>
				<path class="st2" d="M167.7,19.9c4.6,0,7.6,3.9,7.3,9.1L162,29c0.1,4,2.6,6.3,5.9,6.3c2.6,0,4.4-1.3,5-3.6l2,0
					c-0.8,3.4-3.5,5.3-7.1,5.3c-4.8,0-7.8-3.5-7.8-8.6C160,23.2,163.3,19.9,167.7,19.9z M173,27.3c0-2.8-2-5.6-5.3-5.6
					c-3.1,0-5.3,2-5.7,5.6H173z"/>
				<path class="st2" d="M189.6,25.5c-0.6-2.5-2.6-3.8-5-3.8c-2.8,0-5.4,2.3-5.4,6.8c0,4.7,2.5,6.8,5.4,6.8c2.8,0,4.6-1.8,5-3.9h2
					c-0.7,3.4-3.4,5.6-7.1,5.6c-4.7,0-7.4-3.5-7.4-8.6c0-5.1,2.8-8.6,7.6-8.6c3.7,0,6.3,2.6,6.8,5.6H189.6z"/>
				<path class="st2" d="M202.1,19.9c3.9,0,5.5,2.3,5.5,6.4v10.4h-1.9v-9.8c0-3.1-0.8-5.2-4.1-5.2c-2.8,0-5,2.4-5,5.9v9.1h-1.9V14.5
					h1.9V23C197.4,21.4,199.1,19.9,202.1,19.9z"/>
			</g>
		</g>
		<g>
			<polygon class="st2" points="149.4,16.6 147.2,16.6 147.2,14.5 			"/>
		</g>
	</g>
</g>
</svg>
