<svg version="1.0" xmlns="http://www.w3.org/2000/svg"
 width="20px" height="20px" viewBox="0 0 512.000000 512.000000"
 preserveAspectRatio="xMidYMid meet">

<g transform="translate(0.000000,512.000000) scale(0.100000,-0.100000)"
fill="#000000" stroke="none">
<path d="M875 5026 c-159 -51 -272 -184 -295 -348 -12 -82 -12 -2064 0 -2146
25 -178 159 -318 335 -352 42 -7 227 -10 600 -8 l540 3 5 137 c5 134 6 137 37
182 l33 46 -588 0 -589 0 -21 23 -22 23 0 868 c0 547 4 874 10 886 5 10 24 23
41 29 45 16 3293 16 3338 0 17 -6 36 -19 41 -29 6 -12 10 -228 10 -567 l0
-548 170 -170 170 -170 0 897 c0 864 -1 898 -20 959 -37 120 -117 211 -236
266 l-59 28 -1730 2 c-1379 1 -1738 -1 -1770 -11z m456 -355 c52 -42 17 -131
-51 -131 -44 0 -74 31 -74 75 0 44 30 75 74 75 15 0 38 -8 51 -19z m378 -7
c12 -15 21 -37 21 -49 0 -38 -37 -75 -76 -75 -45 0 -74 29 -74 75 0 72 86 104
129 49z m368 4 c29 -27 31 -80 3 -108 -44 -44 -130 -9 -130 54 0 66 78 100
127 54z"/>
<path d="M1060 3460 l0 -770 583 0 583 0 0 68 c0 50 5 77 21 107 30 57 438
460 485 479 73 31 175 17 231 -32 16 -14 17 -13 17 14 1 73 81 172 157 193 23
7 155 11 329 11 319 0 348 -4 416 -60 41 -34 78 -103 78 -145 0 -26 1 -27 17
-13 49 43 136 65 191 49 l32 -10 0 440 0 439 -1570 0 -1570 0 0 -770z m1143
518 c63 -33 63 -103 0 -136 -16 -9 -151 -12 -483 -12 l-462 0 -29 29 c-16 16
-29 36 -29 45 0 27 22 64 44 74 31 16 930 16 959 0z m-169 -379 c33 -15 52
-62 40 -97 -18 -50 -30 -52 -437 -52 l-379 0 -29 29 c-16 16 -29 39 -29 51 0
12 13 35 29 51 l29 29 376 0 c257 0 383 -4 400 -11z m-129 -404 c32 -31 32
-66 1 -102 l-24 -28 -312 0 -312 0 -24 28 c-31 36 -31 71 1 102 l24 25 311 0
311 0 24 -25z"/>
<path d="M3159 3351 c-23 -18 -24 -26 -27 -165 l-3 -146 -36 -15 -35 -15 -106
100 c-86 82 -111 100 -135 100 -26 0 -57 -26 -210 -177 -196 -194 -237 -243
-237 -281 0 -18 27 -53 98 -126 l99 -101 -16 -37 -16 -38 -137 0 c-75 0 -144
-3 -153 -6 -40 -16 -45 -51 -45 -334 0 -283 5 -318 45 -334 9 -3 79 -6 154 -6
l138 0 15 -37 15 -38 -99 -101 c-140 -145 -148 -120 110 -377 176 -175 213
-207 237 -207 24 0 49 19 130 100 l101 100 42 -16 42 -17 0 -144 c0 -130 2
-145 20 -163 19 -19 33 -20 319 -20 l300 0 20 26 c19 24 21 40 21 165 l0 139
37 15 36 15 102 -100 c145 -142 120 -149 377 108 174 174 208 212 208 236 0
23 -20 49 -100 131 l-100 101 13 40 14 39 145 5 c125 4 149 8 167 24 20 19 21
27 21 316 l0 297 -23 21 c-22 20 -33 22 -160 22 l-136 0 -16 30 c-8 16 -15 35
-15 41 0 7 45 59 100 114 69 71 100 109 100 126 0 17 -57 80 -212 236 -180
180 -217 213 -242 213 -23 0 -49 -19 -130 -99 l-101 -99 -37 15 -37 15 -3 143
c-3 124 -6 146 -22 164 -19 20 -27 21 -316 21 -278 0 -299 -1 -321 -19z m446
-746 c88 -23 152 -62 231 -140 204 -202 201 -511 -5 -715 -196 -194 -493 -200
-698 -16 -256 230 -210 645 91 821 104 61 259 81 381 50z"/>
<path d="M1091 1909 c-43 -17 -50 -38 -51 -141 0 -126 -9 -129 -106 -36 -54
51 -79 68 -100 68 -23 0 -56 -28 -181 -153 -189 -189 -189 -187 -84 -291 41
-40 67 -74 64 -82 -4 -10 -28 -14 -95 -14 -89 0 -122 -9 -145 -39 -9 -11 -12
-77 -13 -229 l0 -213 25 -24 c22 -23 32 -25 120 -25 125 0 129 -9 41 -99 -100
-104 -101 -102 87 -289 187 -187 184 -186 288 -86 89 87 99 84 99 -34 0 -75 3
-93 21 -116 l20 -26 219 0 c275 0 263 -6 268 138 5 131 13 135 103 46 101
-100 97 -102 285 87 125 126 154 161 154 183 0 21 -17 46 -69 100 -57 58 -68
74 -60 89 8 14 25 17 103 17 146 0 140 -9 144 248 l3 210 -25 28 c-23 28 -29
29 -123 33 -58 2 -101 8 -105 14 -4 7 22 42 63 83 52 54 69 79 69 100 0 23
-29 57 -158 186 -129 129 -163 158 -186 158 -21 0 -46 -17 -100 -69 -41 -41
-76 -67 -83 -63 -6 4 -12 47 -14 104 -6 147 1 142 -252 145 -116 1 -212 -2
-226 -8z m307 -494 c84 -20 135 -48 199 -107 156 -148 175 -400 42 -568 -165
-209 -464 -221 -647 -26 -85 92 -106 149 -107 291 0 104 2 113 33 178 71 145
221 241 382 246 19 0 63 -6 98 -14z"/>
</g>
</svg>
