
<svg version="1.0" xmlns="http://www.w3.org/2000/svg"
 width="16.000000pt" height="16.000000pt" viewBox="0 0 16.000000 16.000000"
 preserveAspectRatio="xMidYMid meet">

<g transform="translate(0.000000,16.000000) scale(0.100000,-0.100000)"
fill="#fff" stroke="none">
<path d="M55 150 c-77 -30 -57 -143 25 -143 41 0 73 32 73 73 0 50 -53 88 -98
70z m13 -42 c8 -8 15 -8 27 2 20 17 32 5 15 -15 -10 -12 -10 -18 0 -30 17 -20
5 -32 -15 -15 -12 10 -18 10 -30 0 -20 -17 -32 -5 -15 15 10 12 10 19 2 27
-14 14 -16 28 -4 28 4 0 13 -5 20 -12z"/>
</g>
</svg>
